<svg width="20" height="12" viewBox="0 0 20 12" fill="none" xmlns="http://www.w3.org/2000/svg">
<path d="M19.4834 8.62526L11.3255 0.562489C11.1487 0.384255 10.9384 0.242788 10.7067 0.146246C10.475 0.0497049 10.2264 0 9.97539 0C9.72436 0 9.47581 0.0497049 9.24408 0.146246C9.01236 0.242788 8.80204 0.384255 8.62526 0.562489L0.562489 8.62526C0.384255 8.80204 0.242787 9.01236 0.146246 9.24408C0.0497039 9.47581 0 9.72436 0 9.97539C0 10.2264 0.0497039 10.475 0.146246 10.7067C0.242787 10.9384 0.384255 11.1487 0.562489 11.3255C0.918777 11.6797 1.40074 11.8785 1.90311 11.8785C2.40549 11.8785 2.88745 11.6797 3.24374 11.3255L9.97539 4.59387L16.707 11.3255C17.0612 11.6768 17.5393 11.8749 18.0382 11.877C18.2884 11.8784 18.5365 11.8305 18.7682 11.7358C18.9999 11.6412 19.2106 11.5018 19.3883 11.3255C19.5729 11.1551 19.7219 10.9498 19.8267 10.7215C19.9315 10.4931 19.99 10.2463 19.9988 9.99522C20.0077 9.74414 19.9667 9.4938 19.8782 9.25866C19.7897 9.02352 19.6555 8.80824 19.4834 8.62526Z" fill="#6F6F6E"/>
</svg>
