<svg width="25" height="20" viewBox="0 0 25 20" fill="none" xmlns="http://www.w3.org/2000/svg">
<path d="M24.8957 9.49669C22.3716 3.63623 17.6232 0 12.5 0C7.37679 0 2.62844 3.63623 0.10432 9.49669C0.0355144 9.65434 0 9.8245 0 9.99652C0 10.1685 0.0355144 10.3387 0.10432 10.4963C2.62844 16.3568 7.37679 19.993 12.5 19.993C17.6232 19.993 22.3716 16.3568 24.8957 10.4963C24.9645 10.3387 25 10.1685 25 9.99652C25 9.8245 24.9645 9.65434 24.8957 9.49669ZM12.5 17.4939C8.53888 17.4939 4.79019 14.6324 2.62844 9.99652C4.79019 5.36063 8.53888 2.49913 12.5 2.49913C16.4611 2.49913 20.2098 5.36063 22.3716 9.99652C20.2098 14.6324 16.4611 17.4939 12.5 17.4939ZM12.5 4.99826C11.5114 4.99826 10.5451 5.2914 9.72312 5.84062C8.90116 6.38983 8.26052 7.17045 7.88221 8.08377C7.5039 8.99708 7.40492 10.0021 7.59778 10.9716C7.79064 11.9412 8.26668 12.8318 8.9657 13.5308C9.66472 14.2298 10.5553 14.7059 11.5249 14.8987C12.4945 15.0916 13.4994 14.9926 14.4128 14.6143C15.3261 14.236 16.1067 13.5954 16.6559 12.7734C17.2051 11.9514 17.4983 10.9851 17.4983 9.99652C17.4983 8.6709 16.9717 7.39957 16.0343 6.46221C15.0969 5.52486 13.8256 4.99826 12.5 4.99826ZM12.5 12.4956C12.0057 12.4956 11.5225 12.3491 11.1116 12.0745C10.7006 11.7999 10.3803 11.4095 10.1911 10.9529C10.002 10.4962 9.95246 9.99374 10.0489 9.50896C10.1453 9.02418 10.3833 8.57888 10.7328 8.22937C11.0824 7.87986 11.5277 7.64184 12.0124 7.54541C12.4972 7.44898 12.9997 7.49847 13.4564 7.68762C13.913 7.87677 14.3033 8.19709 14.5779 8.60808C14.8526 9.01905 14.9991 9.50224 14.9991 9.99652C14.9991 10.6593 14.7358 11.295 14.2671 11.7637C13.7985 12.2323 13.1628 12.4956 12.5 12.4956Z" fill="#6F6F6E"/>
</svg>
