<svg width="20" height="20" viewBox="0 0 20 20" fill="none" xmlns="http://www.w3.org/2000/svg">
<path d="M10 0C8.72596 0 7.63822 0.450721 6.73678 1.35216C5.83534 2.25361 5.38462 3.34135 5.38462 4.61538C5.38462 5.88942 5.83534 6.97716 6.73678 7.87861C7.63822 8.78005 8.72596 9.23077 10 9.23077C11.274 9.23077 12.3618 8.78005 13.2632 7.87861C14.1647 6.97716 14.6154 5.88942 14.6154 4.61538C14.6154 3.34135 14.1647 2.25361 13.2632 1.35216C12.3618 0.450721 11.274 0 10 0ZM10 10.7692C10.8974 10.7692 11.8069 10.8574 12.7284 11.0337C13.6498 11.2099 14.5473 11.4884 15.4207 11.869C16.2941 12.2496 17.0693 12.7063 17.7464 13.2392C18.4235 13.772 18.9683 14.4231 19.381 15.1923C19.7937 15.9615 20 16.7949 20 17.6923C20 18.2933 19.7716 18.8281 19.3149 19.2969C18.8582 19.7656 18.3173 20 17.6923 20H2.30769C1.68269 20 1.14183 19.7656 0.685096 19.2969C0.228365 18.8281 0 18.2933 0 17.6923C0 16.7949 0.20633 15.9615 0.61899 15.1923C1.03165 14.4231 1.57652 13.772 2.25361 13.2392C2.93069 12.7063 3.70593 12.2496 4.57933 11.869C5.45272 11.4884 6.35016 11.2099 7.27163 11.0337C8.19311 10.8574 9.10256 10.7692 10 10.7692Z" fill="#1867B4"/>
</svg>
