<svg width="23" height="20" viewBox="0 0 23 20" fill="none" xmlns="http://www.w3.org/2000/svg">
<path d="M10.6417 1.87055L11.5185 2.7486L12.3953 1.87179C12.9702 1.29185 13.654 0.831169 14.4074 0.516196C15.1608 0.201222 15.969 0.0381609 16.7856 0.0363727C17.6021 0.0345846 18.411 0.194105 19.1658 0.505776C19.9206 0.817447 20.6064 1.27513 21.1838 1.85255C21.7612 2.42997 22.2189 3.11575 22.5306 3.87053C22.8423 4.62531 23.0018 5.43421 23 6.2508C22.9982 7.0674 22.8351 7.87559 22.5202 8.629C22.2052 9.3824 21.7445 10.0662 21.1646 10.6411L12.3965 19.4103C12.2814 19.5256 12.1446 19.6171 11.994 19.6795C11.8435 19.7419 11.6821 19.7741 11.5191 19.7741C11.3561 19.7741 11.1948 19.7419 11.0442 19.6795C10.8936 19.6171 10.7569 19.5256 10.6417 19.4103L1.87242 10.6411C1.28459 10.068 0.816398 9.38397 0.494997 8.62858C0.173596 7.87319 0.00538697 7.0615 0.000127286 6.2406C-0.0051324 5.41969 0.152662 4.60591 0.464357 3.84647C0.776052 3.08702 1.23544 2.39702 1.81588 1.8165C2.39632 1.23598 3.08625 0.776493 3.84565 0.46469C4.60506 0.152888 5.41881 -0.00502186 6.23972 0.000121729C7.06063 0.00526531 7.87234 0.17336 8.62778 0.494654C9.38321 0.815948 10.0673 1.28405 10.6404 1.87179L10.6417 1.87055Z" fill="#1867B4"/>
</svg>
