<svg width="17" height="17" viewBox="0 0 17 17" fill="none" xmlns="http://www.w3.org/2000/svg">
<path d="M8.05141 0.00138452C6.61467 0.0198012 3.52327 0.243636 1.79396 1.74743C0.510225 2.95869 0.0616652 4.7444 0.00942024 6.95582C-0.0353611 9.15875 -0.087606 13.2954 4.11438 14.4224V16.1366C4.11438 16.1366 4.08602 16.8236 4.56369 16.9653C5.15331 17.1424 5.48917 16.6119 6.04894 16.0452L7.09383 14.926C9.96731 15.1527 12.1691 14.6292 12.4228 14.5513C13.005 14.3742 16.2897 13.9768 16.8271 9.83946C17.3794 5.56749 16.5584 2.87581 15.0806 1.65747L15.0731 1.65606C14.6253 1.26647 12.8341 0.0268846 8.82613 0.0127179C8.82613 0.0127179 8.53057 -0.0049905 8.05141 0.00138452ZM8.10142 1.20343C8.50818 1.20131 8.75821 1.2176 8.75821 1.2176C12.1467 1.22468 13.767 2.1951 14.1476 2.52093C15.3941 3.53315 16.0344 5.96061 15.5657 9.52779C15.1179 12.9845 12.4534 13.2041 11.9608 13.3528C11.7518 13.4166 9.81132 13.8699 7.36924 13.7211C7.36924 13.7211 5.54888 15.8044 4.98165 16.3427C4.89208 16.4348 4.78759 16.4631 4.72042 16.4489C4.6234 16.4277 4.59354 16.3144 4.601 16.1585L4.61593 13.3117C1.05507 12.3767 1.26405 8.84779 1.30136 7.00612C1.34614 5.16444 1.71186 3.65427 2.79408 2.63427C4.25469 1.38051 6.88112 1.21051 8.10142 1.20343ZM8.3701 3.0451C8.34074 3.04501 8.31164 3.05042 8.28448 3.06102C8.25731 3.07162 8.23263 3.08721 8.21182 3.10688C8.19102 3.12656 8.17452 3.14994 8.16326 3.17568C8.15199 3.20142 8.1462 3.22902 8.1462 3.2569C8.1462 3.31325 8.16979 3.3673 8.21178 3.40716C8.25377 3.44701 8.31072 3.4694 8.3701 3.4694C8.92498 3.45935 9.47646 3.5537 9.99271 3.74701C10.509 3.94031 10.9798 4.22874 11.3779 4.59565C12.1914 5.34649 12.5878 6.35232 12.6027 7.66983C12.6027 7.69773 12.6085 7.72536 12.6197 7.75115C12.631 7.77693 12.6475 7.80035 12.6683 7.82009C12.6891 7.83982 12.7137 7.85547 12.7409 7.86615C12.7681 7.87683 12.7972 7.88233 12.8266 7.88233V7.87595C12.886 7.87595 12.9429 7.85356 12.9849 7.81371C13.0269 7.77386 13.0505 7.71981 13.0505 7.66345C13.0782 7.04386 12.9727 6.4254 12.7405 5.84575C12.5082 5.26609 12.1541 4.73737 11.6996 4.29177C10.8114 3.4701 9.69115 3.0451 8.3701 3.0451ZM5.41901 3.53385C5.26029 3.51239 5.09858 3.54233 4.96 3.61885H4.95105C4.64504 3.78886 4.36292 4.00136 4.09423 4.28469C3.89271 4.51136 3.78001 4.73732 3.75016 4.9569C3.7326 5.08568 3.74534 5.21656 3.78748 5.34011L3.8024 5.34719C4.03245 5.98905 4.33263 6.6063 4.69803 7.18887C5.17168 8.00474 5.75361 8.75961 6.42958 9.435L6.45197 9.46333L6.48182 9.48458L6.50421 9.50583L6.5266 9.52708C7.24104 10.1702 8.03854 10.7248 8.90002 11.1775C9.88521 11.6875 10.4838 11.9283 10.842 12.0275V12.0346C10.9465 12.0629 11.0421 12.0771 11.1391 12.0771C11.4449 12.0559 11.7344 11.9382 11.9616 11.7428C12.2526 11.4948 12.484 11.22 12.6557 10.9296V10.9225C12.8273 10.6179 12.7676 10.3268 12.5213 10.1285C12.025 9.71635 11.4875 9.35102 10.9167 9.03762C10.536 8.83929 10.1479 8.95971 9.99119 9.15804L9.65533 9.56108C9.48367 9.75942 9.1702 9.73108 9.1702 9.73108L9.16124 9.73817C6.83261 9.1715 6.21313 6.93386 6.21313 6.93386C6.21313 6.93386 6.18328 6.62928 6.39972 6.47345L6.81768 6.1547C7.0192 5.99886 7.16101 5.63053 6.94456 5.26928C6.61479 4.72721 6.22982 4.21713 5.79518 3.74636C5.70063 3.63507 5.56716 3.55967 5.41901 3.53385ZM8.75746 4.16427C8.69808 4.16446 8.64121 4.18703 8.59936 4.22701C8.5575 4.267 8.5341 4.32112 8.5343 4.37748C8.5345 4.43384 8.55828 4.48782 8.60041 4.52754C8.64254 4.56725 8.69957 4.58946 8.75896 4.58927C9.50587 4.60158 10.2172 4.89453 10.7368 5.40386C10.9712 5.64931 11.1515 5.93686 11.2668 6.24953C11.3822 6.5622 11.4304 6.89365 11.4085 7.22428C11.4087 7.28052 11.4324 7.33439 11.4744 7.37409C11.5163 7.41378 11.5732 7.43608 11.6324 7.43608L11.6399 7.44458C11.6694 7.44458 11.6985 7.43906 11.7257 7.42833C11.753 7.41761 11.7777 7.40189 11.7985 7.38208C11.8193 7.36228 11.8358 7.33877 11.847 7.3129C11.8582 7.28704 11.8639 7.25933 11.8638 7.23137C11.8862 6.38845 11.61 5.68011 11.0652 5.11344C10.5204 4.54677 9.75907 4.22802 8.78881 4.16427C8.77837 4.16358 8.7679 4.16358 8.75746 4.16427ZM9.12318 5.31107C9.09324 5.31023 9.06341 5.315 9.03541 5.3251C9.00741 5.3352 8.98178 5.35044 8.95998 5.36994C8.93819 5.38944 8.92065 5.41283 8.90838 5.43876C8.8961 5.4647 8.88933 5.49267 8.88845 5.52109C8.88757 5.54951 8.89259 5.57781 8.90323 5.60439C8.91388 5.63096 8.92993 5.65529 8.95048 5.67597C8.97103 5.69666 8.99567 5.7133 9.023 5.72495C9.05032 5.7366 9.0798 5.74302 9.10974 5.74386C9.84864 5.77928 10.2069 6.13345 10.2517 6.86303C10.2536 6.91815 10.278 6.9704 10.3198 7.00873C10.3616 7.04707 10.4175 7.06848 10.4756 7.06845H10.483C10.5131 7.06756 10.5427 7.06093 10.57 7.04896C10.5973 7.03698 10.6218 7.01991 10.642 6.99875C10.6622 6.97759 10.6777 6.95279 10.6876 6.92582C10.6975 6.89885 10.7015 6.87027 10.6995 6.84178C10.6472 5.89261 10.1024 5.36065 9.13213 5.31107C9.12915 5.31101 9.12616 5.31101 9.12318 5.31107Z" fill="#6F6F6E"/>
</svg>
