<svg width="21" height="21" viewBox="0 0 21 21" fill="none" xmlns="http://www.w3.org/2000/svg">
<path d="M18.7219 8.84309C18.7977 9.44877 19.2846 9.94627 19.895 9.94627C20.5054 9.94627 21.0064 9.44975 20.9451 8.84243C20.4654 4.09116 16.9036 0.533494 12.1458 0.0549302C11.5384 -0.00616097 11.0419 0.494843 11.0419 1.10526C11.0419 1.71568 11.5394 2.20261 12.1452 2.27808C15.6966 2.72053 18.278 5.29718 18.7219 8.84309Z" fill="#1867B4"/>
<path d="M11.0528 5.5263C11.0528 6.13672 11.5538 6.60981 12.1533 6.72464C13.3669 6.95709 14.043 7.63328 14.2755 8.84688C14.3903 9.44639 14.8634 9.94736 15.4738 9.94736C16.0842 9.94736 16.5896 9.44919 16.5102 8.84397C16.1801 6.32881 14.6713 4.81998 12.1562 4.4899C11.551 4.41047 11.0528 4.91588 11.0528 5.5263ZM14.835 12.6475C14.6226 12.4545 14.3435 12.3515 14.0566 12.3604C13.7698 12.3693 13.4976 12.4893 13.2976 12.695L11.4037 14.6428C10.9349 15.1249 10.2453 15.3591 9.62554 15.0981C8.99172 14.8312 8.21204 14.3717 7.41874 13.5804C6.62431 12.7853 6.16384 12.003 5.89751 11.3686C5.63842 10.7514 5.8722 10.0658 6.3518 9.59887L8.30183 7.70036C8.50786 7.50044 8.62803 7.22821 8.6369 6.94127C8.64577 6.65432 8.54265 6.37519 8.34936 6.16293L4.26546 1.67224C4.07209 1.45932 3.80334 1.33017 3.51628 1.31222C3.22921 1.29426 2.94646 1.38892 2.72806 1.57609L0.329676 3.63298C0.138591 3.82476 0.0245382 4.08001 0.00915361 4.3503C-0.00742511 4.62662 -0.323526 11.172 4.75177 16.2496C9.1794 20.6762 14.7255 21 16.253 21C16.4762 21 16.6133 20.9934 16.6498 20.9912C16.92 20.976 17.1751 20.8615 17.366 20.6695L19.4217 18.27C19.609 18.0517 19.7039 17.7691 19.6861 17.482C19.6684 17.1949 19.5394 16.9261 19.3267 16.7326L14.835 12.6475Z" fill="#1867B4"/>
</svg>
