<svg width="21" height="14" viewBox="0 0 21 14" fill="none" xmlns="http://www.w3.org/2000/svg">
<path fill-rule="evenodd" clip-rule="evenodd" d="M0 1.66531V12.1469C0 12.8675 0.675 13.4571 1.5 13.4571H19.5C20.325 13.4571 21 12.8675 21 12.1469V1.66531C21 0.944694 20.325 0.355103 19.5 0.355103H1.5C0.675 0.355103 0 0.944694 0 1.66531ZM19.5 1.66531L10.5 8.21633L1.5 1.66531H19.5ZM1.5 3.63061L7.5 7.56122L1.5 11.4918V3.63061ZM3 12.1469L8.25 8.21633L10.5 10.1816L12.75 8.21633L18 12.1469H3ZM19.5 11.4918L13.5 7.56122L19.5 3.63061V11.4918Z" fill="#6F6F6E"/>
</svg>
