<svg width="20" height="17" viewBox="0 0 20 17" fill="none" xmlns="http://www.w3.org/2000/svg">
<path d="M9.25364 1.60814L10.0161 2.363L10.7785 1.60921C11.2784 1.11062 11.873 0.714567 12.5281 0.44378C13.1833 0.172993 13.8861 0.0328074 14.5961 0.0312701C15.3062 0.0297328 16.0096 0.166874 16.6659 0.434822C17.3223 0.702769 17.9186 1.09625 18.4207 1.59266C18.9228 2.08908 19.3208 2.67865 19.5918 3.32754C19.8628 3.97643 20.0015 4.67186 20 5.37389C19.9984 6.07593 19.8566 6.77075 19.5827 7.41846C19.3089 8.06617 18.9083 8.65402 18.404 9.14825L10.7796 16.6873C10.6794 16.7864 10.5605 16.8651 10.4296 16.9187C10.2987 16.9724 10.1583 17 10.0166 17C9.8749 17 9.73457 16.9724 9.60365 16.9187C9.47273 16.8651 9.3538 16.7864 9.25364 16.6873L1.62819 9.14825C1.11704 8.65561 0.709911 8.06752 0.430432 7.4181C0.150953 6.76868 0.00468432 6.07086 0.000110684 5.36512C-0.00446296 4.65938 0.132749 3.95976 0.403789 3.30685C0.674828 2.65395 1.0743 2.06075 1.57903 1.56167C2.08376 1.06259 2.6837 0.66756 3.34405 0.3995C4.0044 0.131439 4.71201 -0.00431735 5.42584 0.000104652C6.13968 0.00452666 6.84551 0.149039 7.50241 0.42526C8.15932 0.701481 8.7542 1.10391 9.25256 1.60921L9.25364 1.60814Z" fill="#FF0736"/>
</svg>
