<svg width="28" height="28" viewBox="0 0 28 28" fill="none" xmlns="http://www.w3.org/2000/svg">
<path d="M17.5852 2.33325H10.4265C3.8885 2.33325 2.33333 3.88842 2.33333 10.4148V17.5734C2.33333 24.1103 3.87683 25.6666 10.4148 25.6666H17.5735C24.1103 25.6666 25.6667 24.1231 25.6667 17.5851V10.4264C25.6667 3.88842 24.1232 2.33325 17.5852 2.33325ZM21.1703 18.9816H19.4682C18.8242 18.9816 18.6305 18.4601 17.4755 17.3051C16.4675 16.3333 16.0417 16.2119 15.7862 16.2119C15.4338 16.2119 15.337 16.3088 15.337 16.7953V18.3259C15.337 18.7401 15.2028 18.9828 14.1213 18.9828C13.0717 18.9122 12.0539 18.5933 11.1517 18.0524C10.2495 17.5114 9.48869 16.7638 8.932 15.8713C7.61036 14.2263 6.69076 12.2956 6.24633 10.2328C6.24633 9.97725 6.34316 9.74625 6.82966 9.74625H8.53066C8.96816 9.74625 9.12566 9.94109 9.29716 10.3903C10.1232 12.8216 11.5325 14.9356 12.1042 14.9356C12.3235 14.9356 12.4192 14.8388 12.4192 14.2916V11.7879C12.3468 10.6458 11.7402 10.5489 11.7402 10.1359C11.748 10.027 11.7979 9.92537 11.8793 9.85263C11.9608 9.77988 12.0674 9.74173 12.1765 9.74625H14.8505C15.2157 9.74625 15.337 9.92825 15.337 10.3658V13.7444C15.337 14.1096 15.4945 14.2309 15.6042 14.2309C15.8235 14.2309 15.9927 14.1096 16.394 13.7083C17.256 12.657 17.9603 11.4858 18.4847 10.2316C18.5383 10.0809 18.6397 9.95194 18.7734 9.86431C18.9072 9.77668 19.066 9.73522 19.2255 9.74625H20.9277C21.4375 9.74625 21.546 10.0018 21.4375 10.3658C20.8186 11.7523 20.0527 13.0684 19.1532 14.2916C18.97 14.5716 18.8965 14.7174 19.1532 15.0453C19.3223 15.3008 19.9185 15.7989 20.3198 16.2726C20.9031 16.8543 21.3874 17.5274 21.7537 18.2653C21.8995 18.7389 21.6557 18.9828 21.1703 18.9828V18.9816Z" fill="white"/>
</svg>
