<svg width="28" height="28" viewBox="0 0 28 28" fill="none" xmlns="http://www.w3.org/2000/svg">
<path d="M14 11.1066C13.4278 11.1066 12.8684 11.2763 12.3926 11.5942C11.9168 11.9121 11.5459 12.364 11.3269 12.8927C11.1079 13.4214 11.0506 14.0031 11.1623 14.5644C11.2739 15.1256 11.5495 15.6412 11.9541 16.0458C12.3588 16.4505 12.8743 16.726 13.4355 16.8377C13.9968 16.9493 14.5786 16.892 15.1072 16.673C15.6359 16.454 16.0878 16.0832 16.4057 15.6074C16.7237 15.1316 16.8933 14.5722 16.8933 13.9999C16.8933 13.62 16.8185 13.2437 16.6731 12.8927C16.5277 12.5417 16.3146 12.2227 16.0459 11.954C15.7772 11.6854 15.4583 11.4722 15.1072 11.3268C14.7562 11.1814 14.38 11.1066 14 11.1066ZM25.585 8.24825C25.5789 7.3473 25.413 6.45459 25.095 5.61159C24.8608 4.99472 24.4985 4.43453 24.032 3.96797C23.5654 3.50141 23.0052 3.13909 22.3883 2.90492C21.5453 2.58696 20.6526 2.42106 19.7517 2.41492C18.2467 2.33325 17.8033 2.33325 14 2.33325C10.1967 2.33325 9.75334 2.33325 8.24834 2.41492C7.34739 2.42106 6.45468 2.58696 5.61168 2.90492C4.99481 3.13909 4.43462 3.50141 3.96806 3.96797C3.5015 4.43453 3.13918 4.99472 2.90501 5.61159C2.58705 6.45459 2.42115 7.3473 2.41501 8.24825C2.33334 9.75325 2.33334 10.1966 2.33334 13.9999C2.33334 17.8033 2.33334 18.2466 2.41501 19.7516C2.42757 20.6557 2.59325 21.5512 2.90501 22.3999C3.13814 23.014 3.50016 23.5709 3.96668 24.0333C4.43124 24.5026 4.99263 24.8649 5.61168 25.0949C6.45468 25.4129 7.34739 25.5788 8.24834 25.5849C9.75334 25.6666 10.1967 25.6666 14 25.6666C17.8033 25.6666 18.2467 25.6666 19.7517 25.5849C20.6526 25.5788 21.5453 25.4129 22.3883 25.0949C23.0074 24.8649 23.5688 24.5026 24.0333 24.0333C24.4999 23.5709 24.8619 23.014 25.095 22.3999C25.4127 21.5528 25.5785 20.6563 25.585 19.7516C25.6667 18.2466 25.6667 17.8033 25.6667 13.9999C25.6667 10.1966 25.6667 9.75325 25.585 8.24825ZM22.6217 17.5816C22.5842 18.3015 22.4306 19.0107 22.1667 19.6816C21.9402 20.2412 21.6035 20.7496 21.1766 21.1765C20.7497 21.6034 20.2413 21.9401 19.6817 22.1666C19.0044 22.4158 18.2913 22.5537 17.57 22.5749H10.43C9.7087 22.5537 8.99558 22.4158 8.31834 22.1666C7.7398 21.9516 7.21733 21.6086 6.79001 21.1633C6.36729 20.7447 6.04083 20.2391 5.83334 19.6816C5.58316 19.0051 5.44905 18.2911 5.43668 17.5699V13.9999V10.4299C5.44905 9.70872 5.58316 8.99478 5.83334 8.31825C6.04834 7.73971 6.39133 7.21724 6.83668 6.78992C7.25707 6.36948 7.76215 6.04336 8.31834 5.83325C8.99558 5.58406 9.7087 5.44616 10.43 5.42492H17.57C18.2913 5.44616 19.0044 5.58406 19.6817 5.83325C20.2602 6.04825 20.7827 6.39124 21.21 6.83659C21.6327 7.25513 21.9592 7.76074 22.1667 8.31825C22.4159 8.99549 22.5538 9.7086 22.575 10.4299V13.9999C22.575 16.4033 22.6567 16.6483 22.6217 17.5699V17.5816ZM20.755 8.90159C20.6161 8.52473 20.3971 8.1825 20.1131 7.8985C19.8291 7.6145 19.4869 7.39549 19.11 7.25659C18.5926 7.07722 18.0476 6.99034 17.5 6.99992H10.5C9.94966 7.0053 9.40459 7.10799 8.89001 7.30325C8.51893 7.43585 8.18032 7.64592 7.89669 7.91949C7.61306 8.19306 7.39091 8.52386 7.24501 8.88992C7.07558 9.40951 6.99281 9.95345 7.00001 10.4999V17.4999C7.01158 18.0497 7.11407 18.5937 7.30334 19.1099C7.44225 19.4868 7.66126 19.829 7.94526 20.113C8.22926 20.397 8.57149 20.616 8.94834 20.7549C9.44612 20.938 9.96994 21.0404 10.5 21.0583H17.5C18.0504 21.0529 18.5954 20.9502 19.11 20.7549C19.4869 20.616 19.8291 20.397 20.1131 20.113C20.3971 19.829 20.6161 19.4868 20.755 19.1099C20.9503 18.5953 21.053 18.0503 21.0583 17.4999V13.9999V10.4999C21.0587 9.94902 20.9558 9.40293 20.755 8.88992V8.90159ZM14 18.4566C13.4153 18.4566 12.8363 18.3412 12.2963 18.1171C11.7562 17.893 11.2657 17.5645 10.8528 17.1506C10.4399 16.7366 10.1127 16.2452 9.89001 15.7045C9.66732 15.1639 9.55348 14.5846 9.55501 13.9999C9.55501 13.118 9.81669 12.2559 10.3069 11.5227C10.7971 10.7896 11.4939 10.2184 12.3089 9.88139C13.1239 9.54442 14.0206 9.45685 14.8854 9.62976C15.7503 9.80267 16.5443 10.2283 17.1671 10.8527C17.79 11.4772 18.2135 12.2724 18.3841 13.1376C18.5548 14.0029 18.4648 14.8994 18.1257 15.7135C17.7866 16.5277 17.2136 17.2229 16.4792 17.7112C15.7447 18.1995 14.8819 18.4589 14 18.4566ZM18.6667 10.4183C18.4088 10.391 18.1701 10.2692 17.9966 10.0764C17.8232 9.88359 17.7272 9.63343 17.7272 9.37409C17.7272 9.11475 17.8232 8.86458 17.9966 8.67179C18.1701 8.479 18.4088 8.35722 18.6667 8.32992C18.9246 8.35722 19.1633 8.479 19.3367 8.67179C19.5102 8.86458 19.6062 9.11475 19.6062 9.37409C19.6062 9.63343 19.5102 9.88359 19.3367 10.0764C19.1633 10.2692 18.9246 10.391 18.6667 10.4183Z" fill="white"/>
</svg>
