<svg width="28" height="28" viewBox="0 0 28 28" fill="none" xmlns="http://www.w3.org/2000/svg">
<path d="M24.3833 2.33325H3.61666C3.2763 2.33325 2.94988 2.46846 2.70921 2.70913C2.46854 2.9498 2.33333 3.27622 2.33333 3.61659V24.3833C2.33333 24.7236 2.46854 25.05 2.70921 25.2907C2.94988 25.5314 3.2763 25.6666 3.61666 25.6666H14.7933V16.6249H11.76V13.1249H14.7933V10.4999C14.7305 9.88364 14.8033 9.26107 15.0065 8.67588C15.2097 8.09069 15.5386 7.55706 15.9699 7.1124C16.4012 6.66774 16.9246 6.32283 17.5033 6.10186C18.082 5.88089 18.7021 5.78921 19.32 5.83325C20.228 5.82766 21.1357 5.87441 22.0383 5.97325V9.12325H20.1833C18.7133 9.12325 18.4333 9.82325 18.4333 10.8383V13.0899H21.9333L21.4783 16.5899H18.4333V25.6666H24.3833C24.5519 25.6666 24.7187 25.6334 24.8744 25.5689C25.0301 25.5044 25.1716 25.4099 25.2908 25.2907C25.41 25.1715 25.5045 25.0301 25.569 24.8744C25.6335 24.7187 25.6667 24.5518 25.6667 24.3833V3.61659C25.6667 3.44806 25.6335 3.28118 25.569 3.12548C25.5045 2.96977 25.41 2.8283 25.2908 2.70913C25.1716 2.58996 25.0301 2.49543 24.8744 2.43094C24.7187 2.36645 24.5519 2.33325 24.3833 2.33325Z" fill="white"/>
</svg>
